{
  "accessors": [
    {
      "bufferView": 1,
      "componentType": 5126,
      "count": 32001,
      "max": [
        1421.425537109375,
        144.832275390625,
        595.47802734375
      ],
      "min": [
        0.07492303848266602,
        4.504382610321045,
        4.184305667877197
      ],
      "type": "VEC3"
    },
    {
      "bufferView": 1,
      "byteOffset": 384012,
      "componentType": 5126,
      "count": 32001,
      "max": [
        1.0,
        1.0,
        1.0
      ],
      "min": [
        -1.0,
        -1.0,
        -1.0
      ],
      "type": "VEC3"
    },
    {
      "bufferView": 0,
      "componentType": 5125,
      "count": 115200,
      "type": "SCALAR"
    }
  ],
  "asset": {
    "extras": {
      "author": "kir_fedorov (https://sketchfab.com/kir_fedorov)",
      "license": "CC-BY-4.0 (http://creativecommons.org/licenses/by/4.0/)",
      "source": "https://sketchfab.com/3d-models/skywalker-x8-1300mm-3088ef463c324801a1c8fb09de4185a8",
      "title": "Skywalker X8 1300mm"
    },
    "generator": "Sketchfab-12.66.0",
    "version": "2.0"
  },
  "bufferViews": [
    {
      "buffer": 0,
      "byteLength": 460800,
      "name": "floatBufferViews",
      "target": 34963
    },
    {
      "buffer": 0,
      "byteLength": 768024,
      "byteOffset": 460800,
      "byteStride": 12,
      "name": "floatBufferViews",
      "target": 34962
    }
  ],
  "buffers": [
    {
      "byteLength": 1228824,
      "uri": "scene.bin"
    }
  ],
  "materials": [
    {
      "doubleSided": true,
      "name": "Scene_-_Root",
      "pbrMetallicRoughness": {
        "baseColorFactor": [
          0.21451610941879626,
          0.21451610941879626,
          0.21451610941879626,
          1.0
        ],
        "metallicFactor": 0.42732217013540547,
        "roughnessFactor": 0.6
      }
    }
  ],
  "meshes": [
    {
      "name": "Object_0",
      "primitives": [
        {
          "attributes": {
            "NORMAL": 1,
            "POSITION": 0
          },
          "indices": 2,
          "material": 0,
          "mode": 4
        }
      ]
    }
  ],
  "nodes": [
    {
      "children": [
        1
      ],
      "matrix": [
        2.220446049250313e-16,
        4.440892098500626e-16,
        -1.0,
        0.0,
        0.0,
        1.0,
        4.440892098500626e-16,
        0.0,
        1.0,
        -4.930380657631324e-32,
        2.220446049250313e-16,
        0.0,
        443.0904541015625,
        163.0430755615233,
        692.9251098632813,
        1.0
      ],
      "name": "Sketchfab_model"
    },
    {
      "children": [
        2
      ],
      "name": "Skywalker X8 1300mm.STL.cleaner.materialmerger.gles"
    },
    {
      "mesh": 0,
      "name": "Object_2"
    }
  ],
  "scene": 0,
  "scenes": [
    {
      "name": "Sketchfab_Scene",
      "nodes": [
        0
      ]
    }
  ]
}
